# Blender v2.79 (sub 0) OBJ File: 'house.blend'
# www.blender.org
o House_Cube
v 1.000000 -1.000000 -1.000000
v 1.000000 -1.000000 1.000000
v -1.000000 -1.000000 1.000000
v -1.000000 -1.000000 -1.000000
v 1.000000 1.000000 -0.999999
v 0.999999 1.000000 1.000001
v -1.000000 1.000000 1.000000
v -1.000000 1.000000 -1.000000
v 1.000000 0.976201 -0.999999
v 0.999999 0.976201 1.000001
v -1.000000 0.976201 1.000000
v -1.000000 0.976201 -1.000000
v 1.000000 -1.000000 0.000000
v -1.000000 -1.000000 -0.000000
v 1.000000 1.735616 0.000001
v -1.000000 1.735616 -0.000000
v -1.000000 0.976201 -0.000000
v 1.000000 0.976201 0.000001
v 1.000000 -1.000000 0.500000
v 1.000000 -0.011900 -1.000000
v 1.000000 -0.011900 1.000000
v 1.000000 0.976201 0.500001
v 1.000000 -1.000000 -0.500000
v 1.000000 0.976201 -0.499999
v 1.000000 -0.011900 0.000000
v 1.000000 -0.011900 -0.500000
v 1.000000 -0.011900 0.500000
v 1.000000 -1.000000 -0.250000
v 1.000000 -1.000000 0.250000
v 1.000000 -0.011900 -0.250000
v 1.000000 -0.505950 -0.500000
v 1.000000 -0.011900 0.250000
v 1.000000 -0.505950 0.500000
v 1.000000 -0.505950 0.250000
v 1.000000 -0.505950 -0.250000
v 1.000000 -0.011900 -0.125000
v 1.000000 -0.258925 0.000000
v 1.000000 -0.011900 0.125000
v 1.000000 -0.258925 0.250000
v 1.000000 -0.258925 -0.250000
v 1.000000 -0.258925 0.125000
v 1.000000 -0.258925 -0.125000
v 0.963712 -1.000000 -0.250000
v 0.963712 -1.000000 0.000000
v 0.963712 -0.505950 0.000000
v 0.963712 -0.258925 0.000000
v 0.963712 -1.000000 0.250000
v 0.963712 -0.505950 0.125000
v 0.963712 -0.505950 0.250000
v 0.963712 -0.258925 0.250000
v 0.963712 -0.505950 -0.125000
v 0.963712 -0.505950 -0.250000
v 0.963712 -0.258925 -0.250000
v 0.963712 -0.258925 0.125000
v 0.963712 -0.258925 -0.125000
v 0.000000 0.976201 -1.000000
v 0.000000 -1.000000 -1.000000
v -1.000000 -0.011900 1.000000
v 1.000000 0.482151 1.000000
v -1.000000 0.482151 1.000000
v -1.000000 -0.505950 1.000000
v 1.000000 -0.505950 1.000000
v 0.333333 -1.000000 1.000000
v -0.333333 -1.000000 1.000000
v 0.333333 0.976201 1.000000
v -0.333334 0.976201 1.000000
v -0.333334 -0.341266 1.000000
v -0.333334 0.317467 1.000000
v 0.333333 -0.341266 1.000000
v 0.333333 0.317467 1.000000
v -0.333334 -0.341266 0.917354
v -0.333334 0.317467 0.917354
v 0.333333 -0.341266 0.917354
v 0.333333 0.317467 0.917354
v 1.000000 0.729176 0.500000
v 1.000000 0.482151 0.500000
v 1.000000 0.235125 0.500000
v 1.000000 0.729176 0.000000
v 1.000000 0.235125 0.000000
v 1.000000 0.729176 -0.500000
v 1.000000 0.482151 -0.500000
v 1.000000 0.235125 -0.500000
v 0.943274 0.729176 0.500000
v 0.943274 0.482151 0.500000
v 0.943274 0.235125 0.500000
v 0.943274 0.729176 0.000000
v 0.943274 0.482151 0.000000
v 0.943274 0.235125 0.000000
v 0.943275 0.729176 -0.500000
v 0.943275 0.482151 -0.500000
v 0.943275 0.235125 -0.500000
v -1.000000 -0.341266 -1.000000
v -1.000000 0.317467 -1.000000
v 1.000000 -0.670633 -1.000000
v 1.000000 -0.341266 -1.000000
v 1.000000 0.317467 -1.000000
v 1.000000 0.646834 -1.000000
v 0.000000 -0.341266 -1.000000
v 0.000000 0.317467 -1.000000
v 0.666667 -0.341266 -1.000000
v 0.333334 -0.341266 -1.000000
v 0.666667 0.317467 -1.000000
v 0.333334 0.317467 -1.000000
v -0.333333 0.317467 -1.000000
v -0.666667 0.317467 -1.000000
v -0.333333 -0.341266 -1.000000
v -0.666666 -0.341266 -1.000000
v 0.333333 -0.341266 -0.945983
v 0.000000 -0.341266 -0.945983
v 0.000000 0.317467 -0.945983
v 0.333334 0.317467 -0.945983
v -0.333333 0.317467 -0.945983
v -0.333333 -0.341266 -0.945984
v 0.595111 1.423377 -0.424459
v 0.451566 1.424532 -0.422889
v 0.442463 1.492454 -0.330555
v 0.575305 1.489255 -0.334905
v 0.595111 1.905260 -0.423656
v 0.451566 1.905266 -0.421707
v 0.442463 1.905634 -0.307082
v 0.575305 1.905617 -0.312482
v 1.000000 0.482151 1.000000
v 0.999999 0.976201 1.000001
v 1.000000 0.976201 0.500001
v 1.000000 -0.011900 0.500000
v 1.000000 -0.011900 1.000000
v 1.000000 0.235125 0.500000
v 1.000000 0.729176 0.500000
v 1.000000 0.482151 0.500000
vt 0.241324 0.088430
vt 0.241332 0.005833
vt 0.374504 0.005845
vt 0.241386 0.610052
vt 0.004134 0.510146
vt 0.241498 0.509188
vt 0.241600 0.505617
vt 0.308188 0.505625
vt 0.083353 0.505977
vt 0.162476 0.505797
vt 0.874801 0.506351
vt 0.748337 0.510082
vt 0.748446 0.506597
vt 0.707150 0.338149
vt 0.674176 0.337879
vt 0.624597 0.254011
vt 0.624604 0.506274
vt 0.748436 0.422385
vt 0.748426 0.338174
vt 0.241600 0.505617
vt 0.241527 0.442618
vt 0.308189 0.474370
vt 0.437769 0.505793
vt 0.374814 0.474135
vt 0.437301 0.474056
vt 0.874637 0.254012
vt 0.993322 0.379974
vt 0.994439 0.513672
vt 0.993561 0.505660
vt 0.376478 0.612408
vt 0.374776 0.505634
vt 0.500747 0.509463
vt 0.568434 0.567175
vt 0.550624 0.567015
vt 0.500071 0.005940
vt 0.500425 0.130000
vt 0.390660 0.379683
vt 0.374968 0.348138
vt 0.390694 0.348186
vt 0.500774 0.338023
vt 0.437850 0.379821
vt 0.437891 0.316836
vt 0.500765 0.463970
vt 0.437810 0.440366
vt 0.241381 0.316621
vt 0.241309 0.253623
vt 0.308194 0.316630
vt 0.329618 0.348134
vt 0.308192 0.379629
vt 0.308189 0.474370
vt 0.330126 0.316635
vt 0.308196 0.253632
vt 0.330567 0.253637
vt 0.396776 0.338468
vt 0.390572 0.342937
vt 0.402391 0.342984
vt 0.358245 0.379635
vt 0.358275 0.348136
vt 0.396683 0.316738
vt 0.402480 0.256431
vt 0.396742 0.259361
vt 0.406508 0.253746
vt 0.437932 0.253850
vt 0.406390 0.379729
vt 0.406420 0.348234
vt 0.358275 0.338248
vt 0.374602 0.342889
vt 0.374968 0.338373
vt 0.390572 0.338420
vt 0.374930 0.379637
vt 0.336025 0.259374
vt 0.331835 0.316391
vt 0.336352 0.316635
vt 0.369225 0.259379
vt 0.332485 0.256444
vt 0.350614 0.308332
vt 0.333911 0.308330
vt 0.333950 0.257943
vt 0.383038 0.308383
vt 0.367317 0.308334
vt 0.367394 0.257948
vt 0.350585 0.339831
vt 0.367279 0.339833
vt 0.383004 0.339881
vt 0.398730 0.339928
vt 0.398759 0.308432
vt 0.332181 0.342641
vt 0.336698 0.338124
vt 0.369469 0.256449
vt 0.402421 0.316860
vt 0.358519 0.342765
vt 0.500779 0.254059
vt 0.542049 0.338048
vt 0.085867 0.331572
vt 0.005752 0.310420
vt 0.005824 0.373419
vt 0.166584 0.420468
vt 0.086102 0.499430
vt 0.166235 0.499445
vt 0.246367 0.499459
vt 0.246247 0.436616
vt 0.165819 0.247865
vt 0.165957 0.331725
vt 0.085740 0.420384
vt 0.159504 0.400448
vt 0.090379 0.399876
vt 0.159121 0.336608
vt 0.090994 0.336211
vt 0.415613 0.409605
vt 0.437830 0.401549
vt 0.308190 0.442627
vt 0.339195 0.436528
vt 0.341561 0.379633
vt 0.374891 0.401371
vt 0.374647 0.409427
vt 0.374082 0.436537
vt 0.415817 0.436702
vt 0.374120 0.423348
vt 0.338951 0.423340
vt 0.338953 0.409419
vt 0.415593 0.423520
vt 0.308191 0.401606
vt 0.542046 0.426204
vt 0.500771 0.380005
vt 0.706914 0.426225
vt 0.579906 0.426515
vt 0.624602 0.426581
vt 0.624600 0.338099
vt 0.662213 0.350575
vt 0.641201 0.350794
vt 0.618969 0.351013
vt 0.579174 0.338073
vt 0.641448 0.415351
vt 0.662218 0.415417
vt 0.674425 0.426403
vt 0.619213 0.415284
vt 0.257296 0.242237
vt 0.499730 0.005667
vt 0.499256 0.244655
vt 0.569528 0.576384
vt 0.748694 0.609075
vt 0.500127 0.609433
vt 0.572856 0.404240
vt 0.540583 0.274065
vt 0.572759 0.274803
vt 0.568434 0.291240
vt 0.549848 0.463540
vt 0.550624 0.291080
vt 0.550764 0.290658
vt 0.521121 0.463212
vt 0.549989 0.463117
vt 0.599642 0.274213
vt 0.602649 0.425662
vt 0.375084 0.253641
vt 0.241317 0.171026
vt 0.004021 0.610033
vt 0.004230 0.506157
vt 0.875610 0.608937
vt 0.748415 0.253963
vt 0.500762 0.505952
vt 0.241454 0.379620
vt 0.308192 0.379629
vt 0.308191 0.401606
vt 0.308190 0.442627
vt 0.308188 0.505625
vt 0.993083 0.254288
vt 0.993203 0.317131
vt 0.993442 0.442817
vt 0.500777 0.296041
vt 0.500768 0.421988
vt 0.241454 0.379620
vt 0.329476 0.379511
vt 0.406449 0.316738
vt 0.398818 0.258052
vt 0.333891 0.339829
vt 0.005970 0.499416
vt 0.005897 0.436417
vt 0.085749 0.247643
vt 0.005679 0.247422
vt 0.246008 0.310930
vt 0.245889 0.248087
vt 0.246128 0.373773
vt 0.258150 0.005056
vt 0.553040 0.575954
vt 0.540442 0.404929
vt 0.567659 0.463700
vt 0.523446 0.271375
vn 0.0000 -1.0000 0.0000
vn -0.0000 0.8055 0.5926
vn 1.0000 0.0000 0.0000
vn -0.0000 -0.0000 1.0000
vn -1.0000 0.0000 -0.0000
vn 0.0000 0.0000 -1.0000
vn 0.0000 0.8055 -0.5926
vn 0.0000 1.0000 0.0000
vn 0.0000 1.0000 -0.0032
vn 0.0405 -0.0567 0.9976
vn -0.0109 0.0017 -0.9999
vn 0.9844 -0.0094 0.1754
vn -0.9952 0.0002 -0.0983
vn 0.0314 -0.0537 0.9981
vn -0.0136 0.0025 -0.9999
vn 0.9763 -0.0004 0.2162
vn -0.9968 0.0045 -0.0792
s off
f 64/1/1 3/2/1 14/3/1
f 15/4/2 7/5/2 6/6/2
f 6/6/3 123/7/3 124/8/3
f 66/9/4 65/10/4 6/6/4
f 17/11/5 8/12/5 12/13/5
f 107/14/6 106/15/6 57/16/6
f 56/17/6 12/13/6 8/12/6
f 93/18/5 92/19/5 17/11/5
f 10/20/3 122/21/3 128/22/3
f 24/23/3 78/24/3 80/25/3
f 17/11/5 14/26/5 58/27/5
f 7/28/5 17/11/5 11/29/5
f 15/30/3 18/31/3 24/23/3
f 5/32/7 115/33/7 114/34/7
f 14/3/1 4/35/1 57/36/1
f 36/37/3 37/38/3 42/39/3
f 95/40/3 26/41/3 31/42/3
f 97/43/3 80/25/3 81/44/3
f 62/45/3 2/46/3 33/47/3
f 39/48/3 27/49/3 33/47/3
f 78/24/3 124/8/3 75/50/3
f 34/51/3 19/52/3 29/53/3
f 40/54/1 55/55/1 53/56/1
f 38/57/3 39/48/3 41/58/3
f 35/59/4 43/60/4 28/61/4
f 31/42/3 28/62/3 23/63/3
f 26/41/3 30/64/3 40/65/3
f 41/66/1 46/67/1 37/68/1
f 42/69/1 46/67/1 55/55/1
f 25/70/3 41/58/3 37/38/3
f 29/71/6 49/72/6 34/73/6
f 13/74/8 47/75/8 29/71/8
f 30/64/3 42/39/3 40/65/3
f 48/76/3 49/77/3 47/78/3
f 51/79/3 45/80/3 44/81/3
f 54/82/3 49/77/3 48/76/3
f 46/83/3 48/76/3 45/80/3
f 55/84/3 45/80/3 51/79/3
f 53/85/3 51/79/3 52/86/3
f 34/73/6 50/87/6 39/88/6
f 28/61/8 44/89/8 13/74/8
f 40/54/4 52/90/4 35/59/4
f 39/88/1 54/91/1 41/66/1
f 1/92/6 57/16/6 100/93/6
f 69/94/4 62/95/4 126/96/4
f 68/97/4 65/98/4 66/99/4
f 66/99/4 11/100/4 60/101/4
f 64/102/4 69/94/4 67/103/4
f 70/104/1 72/105/1 74/106/1
f 71/107/4 74/106/4 72/105/4
f 70/104/5 73/108/5 69/94/5
f 67/103/3 72/105/3 68/97/3
f 69/94/8 71/107/8 67/103/8
f 81/44/4 91/109/4 82/110/4
f 76/111/6 83/112/6 75/50/6
f 32/113/3 38/57/3 79/114/3
f 36/37/3 30/64/3 79/114/3
f 82/110/8 88/115/8 79/114/8
f 80/25/1 86/116/1 89/117/1
f 87/118/3 83/112/3 84/119/3
f 87/118/3 85/120/3 88/115/3
f 90/121/3 88/115/3 91/109/3
f 89/117/3 87/118/3 90/121/3
f 76/111/6 85/120/6 84/119/6
f 79/114/8 85/120/8 77/122/8
f 78/24/1 83/112/1 86/116/1
f 80/25/4 90/121/4 81/44/4
f 102/123/6 20/124/6 100/93/6
f 107/14/6 93/18/6 105/125/6
f 103/126/6 99/127/6 56/17/6
f 105/125/6 93/18/6 12/13/6
f 98/128/8 113/129/8 109/130/8
f 98/128/8 108/131/8 101/132/8
f 110/133/6 108/131/6 109/130/6
f 109/130/6 112/134/6 110/133/6
f 99/127/1 112/134/1 104/135/1
f 104/135/3 113/129/3 106/15/3
f 103/126/1 110/133/1 99/127/1
f 101/132/5 111/136/5 103/126/5
f 121/137/9 119/138/9 120/139/9
f 116/140/7 16/141/7 15/142/7
f 116/143/10 121/144/10 120/145/10
f 115/146/11 118/147/11 114/148/11
f 117/149/12 118/150/12 121/151/12
f 116/143/13 119/152/13 115/153/13
f 14/3/1 13/154/1 64/1/1
f 13/154/1 29/53/1 63/155/1
f 64/1/1 13/154/1 63/155/1
f 19/52/1 2/46/1 63/155/1
f 29/53/1 19/52/1 63/155/1
f 15/4/2 16/156/2 7/5/2
f 124/8/3 18/31/3 15/30/3
f 15/30/3 6/6/3 124/8/3
f 65/10/4 123/7/4 6/6/4
f 6/6/4 7/5/4 66/9/4
f 7/5/4 11/157/4 66/9/4
f 17/11/5 16/158/5 8/12/5
f 106/15/6 98/128/6 57/16/6
f 57/16/6 4/159/6 107/14/6
f 4/159/6 92/19/6 107/14/6
f 8/12/6 5/32/6 56/17/6
f 5/32/6 9/160/6 56/17/6
f 4/159/5 14/26/5 92/19/5
f 14/26/5 17/11/5 92/19/5
f 17/11/5 12/13/5 93/18/5
f 21/161/3 125/162/3 127/163/3
f 127/163/3 129/164/3 122/21/3
f 129/164/3 128/22/3 122/21/3
f 127/163/3 122/21/3 21/161/3
f 128/22/3 22/165/3 10/20/3
f 24/23/3 18/31/3 78/24/3
f 14/26/5 3/166/5 61/167/5
f 61/167/5 58/27/5 14/26/5
f 58/27/5 60/168/5 17/11/5
f 60/168/5 11/29/5 17/11/5
f 7/28/5 16/158/5 17/11/5
f 24/23/3 9/160/3 5/32/3
f 5/32/3 15/30/3 24/23/3
f 5/32/7 8/12/7 115/33/7
f 8/12/7 16/141/7 115/33/7
f 16/141/7 116/140/7 115/33/7
f 114/34/7 15/142/7 5/32/7
f 57/36/1 1/92/1 23/63/1
f 28/62/1 13/154/1 57/36/1
f 13/154/1 14/3/1 57/36/1
f 57/36/1 23/63/1 28/62/1
f 36/37/3 25/70/3 37/38/3
f 23/63/3 1/92/3 94/169/3
f 95/40/3 20/124/3 26/41/3
f 23/63/3 94/169/3 31/42/3
f 94/169/3 95/40/3 31/42/3
f 26/41/3 20/124/3 82/110/3
f 20/124/3 96/170/3 82/110/3
f 97/43/3 9/160/3 80/25/3
f 9/160/3 24/23/3 80/25/3
f 96/170/3 97/43/3 81/44/3
f 82/110/3 96/170/3 81/44/3
f 2/46/3 19/52/3 33/47/3
f 33/47/3 27/49/3 62/45/3
f 27/49/3 126/171/3 62/45/3
f 33/47/3 34/51/3 39/48/3
f 39/48/3 32/172/3 27/49/3
f 78/24/3 18/31/3 124/8/3
f 34/51/3 33/47/3 19/52/3
f 40/54/1 42/69/1 55/55/1
f 38/57/3 32/172/3 39/48/3
f 35/59/4 52/90/4 43/60/4
f 31/42/3 35/173/3 28/62/3
f 35/173/3 31/42/3 40/65/3
f 31/42/3 26/41/3 40/65/3
f 41/66/1 54/91/1 46/67/1
f 42/69/1 37/68/1 46/67/1
f 25/70/3 38/57/3 41/58/3
f 29/71/6 47/75/6 49/72/6
f 13/74/8 44/89/8 47/75/8
f 30/64/3 36/37/3 42/39/3
f 47/78/3 44/81/3 48/76/3
f 44/81/3 45/80/3 48/76/3
f 44/81/3 43/174/3 51/79/3
f 43/174/3 52/86/3 51/79/3
f 54/82/3 50/175/3 49/77/3
f 46/83/3 54/82/3 48/76/3
f 55/84/3 46/83/3 45/80/3
f 53/85/3 55/84/3 51/79/3
f 34/73/6 49/72/6 50/87/6
f 28/61/8 43/60/8 44/89/8
f 40/54/4 53/56/4 52/90/4
f 39/88/1 50/87/1 54/91/1
f 57/16/6 98/128/6 101/132/6
f 100/93/6 95/40/6 94/169/6
f 57/16/6 101/132/6 100/93/6
f 94/169/6 1/92/6 100/93/6
f 123/176/4 65/98/4 59/177/4
f 65/98/4 70/104/4 59/177/4
f 69/94/4 63/178/4 62/95/4
f 63/178/4 2/179/4 62/95/4
f 70/104/4 69/94/4 126/96/4
f 126/96/4 59/177/4 70/104/4
f 68/97/4 70/104/4 65/98/4
f 61/180/4 3/181/4 64/102/4
f 67/103/4 68/97/4 58/182/4
f 68/97/4 66/99/4 60/101/4
f 67/103/4 58/182/4 61/180/4
f 61/180/4 64/102/4 67/103/4
f 60/101/4 58/182/4 68/97/4
f 64/102/4 63/178/4 69/94/4
f 70/104/1 68/97/1 72/105/1
f 71/107/4 73/108/4 74/106/4
f 70/104/5 74/106/5 73/108/5
f 67/103/3 71/107/3 72/105/3
f 69/94/8 73/108/8 71/107/8
f 81/44/4 90/121/4 91/109/4
f 76/111/6 84/119/6 83/112/6
f 38/57/3 25/70/3 79/114/3
f 79/114/3 77/122/3 32/113/3
f 77/122/3 27/49/3 32/113/3
f 30/64/3 26/41/3 82/110/3
f 82/110/3 79/114/3 30/64/3
f 79/114/3 25/70/3 36/37/3
f 82/110/8 91/109/8 88/115/8
f 80/25/1 78/24/1 86/116/1
f 87/118/3 86/116/3 83/112/3
f 87/118/3 84/119/3 85/120/3
f 90/121/3 87/118/3 88/115/3
f 89/117/3 86/116/3 87/118/3
f 76/111/6 77/122/6 85/120/6
f 79/114/8 88/115/8 85/120/8
f 78/24/1 75/50/1 83/112/1
f 80/25/4 89/117/4 90/121/4
f 101/132/6 103/126/6 102/123/6
f 102/123/6 96/170/6 20/124/6
f 20/124/6 95/40/6 100/93/6
f 100/93/6 101/132/6 102/123/6
f 105/125/6 104/135/6 106/15/6
f 107/14/6 92/19/6 93/18/6
f 105/125/6 106/15/6 107/14/6
f 56/17/6 9/160/6 103/126/6
f 9/160/6 97/43/6 102/123/6
f 103/126/6 9/160/6 102/123/6
f 97/43/6 96/170/6 102/123/6
f 12/13/6 56/17/6 104/135/6
f 56/17/6 99/127/6 104/135/6
f 104/135/6 105/125/6 12/13/6
f 98/128/8 106/15/8 113/129/8
f 98/128/8 109/130/8 108/131/8
f 110/133/6 111/136/6 108/131/6
f 109/130/6 113/129/6 112/134/6
f 99/127/1 110/133/1 112/134/1
f 104/135/3 112/134/3 113/129/3
f 103/126/1 111/136/1 110/133/1
f 101/132/5 108/131/5 111/136/5
f 121/137/9 118/183/9 119/138/9
f 15/142/7 114/34/7 117/184/7
f 117/184/7 116/140/7 15/142/7
f 116/143/14 117/185/14 121/144/14
f 115/146/15 119/186/15 118/147/15
f 117/149/16 114/187/16 118/150/16
f 116/143/17 120/145/17 119/152/17
